<?xml version="1.0" encoding="utf-8"?>
<!-- Generator: Adobe Illustrator 25.0.0, SVG Export Plug-In . SVG Version: 6.00 Build 0)  -->
<svg version="1.1" id="Capa_1" xmlns="http://www.w3.org/2000/svg" xmlns:xlink="http://www.w3.org/1999/xlink" x="0px" y="0px"
	 viewBox="0 0 480.4 480.4" style="enable-background:new 0 0 480.4 480.4;" xml:space="preserve">
<style type="text/css">
	.st0{fill:#FFFFFF;}
</style>
<g>
	<g>
		<path class="st0" d="M467.3,141.6c-13.5-19.2-35.5-30.6-59-30.6c-39.7,0-72,32.3-72,72c0,0.7,0.1,1.5,0.1,2.2l-42.3,14.1
			c-20.9-23.8-55.1-31-83.8-17.6L137.6,109c16.7-36.2,0.8-79-35.4-95.7c-36.2-16.7-79-0.8-95.7,35.4s-0.8,79,35.4,95.7
			c21.1,9.7,45.5,8.7,65.7-2.7l70,70c-9.3,16.2-11.7,35.4-6.9,53.5l-45,30c-31.1-25.4-76.9-20.9-102.3,10.2
			c-25.4,31.1-20.9,76.9,10.2,102.3s76.9,20.9,102.3-10.2c14.8-18,20-42.1,14-64.6l45-30c18.9,15.5,44.4,20.2,67.7,12.6l22.4,33.2
			c-28.6,28.7-28.6,75.2,0.1,103.8c28.7,28.6,75.2,28.6,103.8-0.1c28.6-28.7,28.6-75.2-0.1-103.8c-16.7-16.6-40.3-24.2-63.6-20.5
			L299,288.5c10.7-14.9,15.2-33.4,12.5-51.6l38-12.6c22.9,32.5,67.8,40.4,100.3,17.5C482.3,219,490.1,174.1,467.3,141.6z
			 M72.3,134.9c-30.9,0-56-25.1-56-56c0-30.9,25.1-56,56-56s56,25.1,56,56S103.2,134.9,72.3,134.9z M120.7,132c3-2.8,5.8-5.8,8.4-9
			l85.3,85.4c2.4,2.4,2.4,6.3,0,8.7c-0.3,0.3-0.6,0.5-0.9,0.8c-2.4,1.6-5.7,1.3-7.7-0.8L120.7,132z M80.3,406.9
			c-30.9,0-56-25.1-56-56s25.1-56,56-56s56,25.1,56,56C136.3,381.8,111.2,406.9,80.3,406.9z M144,317.5c-2-3.8-4.3-7.4-7-10.8
			l39.6-26.4c2,3.8,4.3,7.4,7,10.8L144,317.5z M249.2,295.5l4,5.9c-30,7.2-60.1-11.2-67.3-41.2c-3-12.3-1.7-25.2,3.7-36.7l4.9,4.9
			c8.8,8.5,22.8,8.3,31.3-0.5c8.3-8.6,8.3-22.2,0-30.8l-3.2-3.2c29.1-9.9,60.8,5.6,70.7,34.8c2,5.9,3,12.1,3,18.3
			c0,9.5-2.4,18.8-7,27.1l-2.2-3.4c-7-10.4-21.1-13.1-31.4-6.1C245.5,271.4,242.6,285.1,249.2,295.5z M336.3,342.9
			c30.9,0,56,25.1,56,56c0,30.9-25.1,56-56,56s-56-25.1-56-56S305.4,342.9,336.3,342.9z M309,332.3c-4,1.7-7.8,3.7-11.5,6
			l-34.9-51.6c-2-3.1-1.1-7.2,2-9.2c3.1-2,7.2-1.1,9.2,2L309,332.3z M307.6,221.4c-1.1-2.9-2.4-5.8-3.8-8.5l35-11.7
			c0.8,3,1.7,5.9,2.9,8.8L307.6,221.4z M408.3,238.9c-30.9,0-56-25.1-56-56s25.1-56,56-56s56,25.1,56,56
			C464.3,213.8,439.2,238.9,408.3,238.9z"/>
	</g>
</g>
</svg>
