<?xml version="1.0" encoding="iso-8859-1"?>
<!-- Generator: Adobe Illustrator 19.0.0, SVG Export Plug-In . SVG Version: 6.00 Build 0)  -->
<svg version="1.1" id="Capa_1" xmlns="http://www.w3.org/2000/svg" xmlns:xlink="http://www.w3.org/1999/xlink" x="0px" y="0px"
	 viewBox="0 0 480.378 480.378" style="enable-background:new 0 0 480.378 480.378;" xml:space="preserve">
<g>
	<g>
		<path d="M467.296,141.551c-13.495-19.219-35.516-30.649-59-30.624c-39.746,0.044-71.956,32.254-72,72
			c0,0.744,0.088,1.456,0.112,2.192l-42.32,14.112c-20.914-23.84-55.054-31.011-83.792-17.6l-72.648-72.648
			c16.657-36.181,0.83-79.014-35.351-95.671C66.117-3.345,23.284,12.482,6.627,48.663c-16.657,36.181-0.83,79.014,35.351,95.671
			c21.055,9.694,45.487,8.676,65.663-2.735l69.984,69.976c-9.254,16.224-11.743,35.441-6.928,53.488l-45.048,30.032
			c-31.074-25.437-76.886-20.866-102.322,10.208C-2.111,336.378,2.46,382.189,33.534,407.626s76.886,20.866,102.322-10.208
			c14.768-18.041,19.989-42.068,14.04-64.61l45.048-30.032c18.925,15.478,44.447,20.212,67.664,12.552l22.4,33.16
			c-28.62,28.696-28.558,75.161,0.139,103.781c28.697,28.62,75.161,28.558,103.781-0.139c28.62-28.697,28.558-75.161-0.139-103.781
			c-16.677-16.632-40.323-24.249-63.573-20.477l-26.232-39.344c10.749-14.897,15.24-33.41,12.512-51.576l37.952-12.648
			c22.851,32.543,67.757,40.399,100.3,17.548C482.291,219,490.147,174.094,467.296,141.551z M72.296,134.927
			c-30.913-0.035-55.965-25.087-56-56c0-30.928,25.072-56,56-56c30.928,0,56,25.072,56,56S103.224,134.927,72.296,134.927z
			 M120.728,132.047c3.038-2.765,5.837-5.781,8.368-9.016l85.344,85.352c2.399,2.399,2.399,6.29,0,8.689
			c-0.286,0.286-0.599,0.543-0.936,0.767c-2.445,1.602-5.678,1.268-7.744-0.8L120.728,132.047z M80.296,406.927
			c-30.928,0-56-25.072-56-56c0-30.928,25.072-56,56-56c30.928,0,56,25.072,56,56C136.261,381.841,111.21,406.892,80.296,406.927z
			 M144.008,317.503c-2.006-3.793-4.346-7.399-6.992-10.776l39.568-26.4c2.006,3.793,4.346,7.399,6.992,10.776L144.008,317.503z
			 M249.2,295.463l4,5.92c-29.979,7.215-60.131-11.24-67.346-41.219c-2.958-12.291-1.657-25.222,3.69-36.677l4.912,4.904
			c8.791,8.503,22.81,8.269,31.312-0.522c8.303-8.584,8.303-22.206,0-30.79l-3.2-3.2c29.134-9.937,60.808,5.625,70.745,34.759
			c2.008,5.887,3.016,12.069,2.983,18.289c0.035,9.486-2.367,18.821-6.976,27.112l-2.24-3.376
			c-6.984-10.372-21.053-13.118-31.425-6.134C245.473,271.386,242.61,285.107,249.2,295.463z M336.296,342.927
			c30.913,0.035,55.965,25.087,56,56c0,30.928-25.072,56-56,56c-30.928,0-56-25.072-56-56
			C280.296,367.999,305.368,342.927,336.296,342.927z M308.96,332.335c-4.003,1.663-7.845,3.687-11.48,6.048l-34.872-51.648
			c-1.988-3.08-1.104-7.188,1.976-9.176c3.08-1.988,7.188-1.104,9.176,1.976L308.96,332.335z M307.552,221.415
			c-1.092-2.922-2.372-5.771-3.832-8.528l35.024-11.672c0.779,2.993,1.748,5.932,2.904,8.8L307.552,221.415z M408.296,238.927
			c-30.928,0-56-25.072-56-56c0-30.928,25.072-56,56-56c30.928,0,56,25.072,56,56C464.261,213.841,439.21,238.892,408.296,238.927z"
			/>
	</g>
</g>
<g>
</g>
<g>
</g>
<g>
</g>
<g>
</g>
<g>
</g>
<g>
</g>
<g>
</g>
<g>
</g>
<g>
</g>
<g>
</g>
<g>
</g>
<g>
</g>
<g>
</g>
<g>
</g>
<g>
</g>
</svg>
